<svg width="16" height="17" fill="none" xmlns="http://www.w3.org/2000/svg"><path d="M5 15.5001C5.55228 15.5001 6 15.0524 6 14.5001C6 13.9478 5.55228 13.5001 5 13.5001C4.44772 13.5001 4 13.9478 4 14.5001C4 15.0524 4.44772 15.5001 5 15.5001Z" fill="#1F1F1F"/><path d="M12 15.5001C12.5523 15.5001 13 15.0524 13 14.5001 13 13.9478 12.5523 13.5001 12 13.5001 11.4477 13.5001 11 13.9478 11 14.5001 11 15.0524 11.4477 15.5001 12 15.5001zM14 4.0001L2.91 4.0001 2.5 1.9001C2.47662 1.78546 2.41379 1.68265 2.32243 1.60957 2.23107 1.53648 2.11697 1.49774 2 1.5001L0 1.5001-5.56419e-8 2.5001 1.59 2.5001 3.5 12.1001C3.52337 12.2147 3.58621 12.3176 3.67757 12.3906 3.76893 12.4637 3.88303 12.5025 4 12.5001L13 12.5001 13 11.5001 4.41 11.5001 4 9.5001 13 9.5001C13.1156 9.50293 13.2286 9.46561 13.3197 9.3945 13.4109 9.3234 13.4746 9.22289 13.5 9.1101L14.5 4.6101C14.5168 4.53592 14.5164 4.45888 14.4989 4.38487 14.4814 4.31085 14.4472 4.24181 14.399 4.18299 14.3508 4.12417 14.2898 4.07712 14.2206 4.04543 14.1515 4.01374 14.076 3.99823 14 4.0001zM12.6 8.5001L3.81 8.5001 3.11 5.0001 13.375 5.0001 12.6 8.5001z" fill="#000"/><script xmlns=""/></svg>